<svg id="visual" viewBox="0 0 1400 900" width="1400" height="900" xmlns="http://www.w3.org/2000/svg" xmlns:xlink="http://www.w3.org/1999/xlink" version="1.1"><rect x="0" y="0" width="1400" height="900" fill="#0a076d"></rect><path d="M0 204L38.8 227.5C77.7 251 155.3 298 233.2 323.3C311 348.7 389 352.3 466.8 339.5C544.7 326.7 622.3 297.3 700 283.5C777.7 269.7 855.3 271.3 933.2 277.7C1011 284 1089 295 1166.8 311.2C1244.7 327.3 1322.3 348.7 1361.2 359.3L1400 370L1400 0L1361.2 0C1322.3 0 1244.7 0 1166.8 0C1089 0 1011 0 933.2 0C855.3 0 777.7 0 700 0C622.3 0 544.7 0 466.8 0C389 0 311 0 233.2 0C155.3 0 77.7 0 38.8 0L0 0Z" fill="#2f2598"></path><path d="M0 188L38.8 194C77.7 200 155.3 212 233.2 222.3C311 232.7 389 241.3 466.8 234.5C544.7 227.7 622.3 205.3 700 194.5C777.7 183.7 855.3 184.3 933.2 188.3C1011 192.3 1089 199.7 1166.8 205.7C1244.7 211.7 1322.3 216.3 1361.2 218.7L1400 221L1400 0L1361.2 0C1322.3 0 1244.7 0 1166.8 0C1089 0 1011 0 933.2 0C855.3 0 777.7 0 700 0C622.3 0 544.7 0 466.8 0C389 0 311 0 233.2 0C155.3 0 77.7 0 38.8 0L0 0Z" fill="#1f1682"></path><path d="M0 184L38.8 173.8C77.7 163.7 155.3 143.3 233.2 139.8C311 136.3 389 149.7 466.8 168.2C544.7 186.7 622.3 210.3 700 221.5C777.7 232.7 855.3 231.3 933.2 232.2C1011 233 1089 236 1166.8 230.2C1244.7 224.3 1322.3 209.7 1361.2 202.3L1400 195L1400 0L1361.2 0C1322.3 0 1244.7 0 1166.8 0C1089 0 1011 0 933.2 0C855.3 0 777.7 0 700 0C622.3 0 544.7 0 466.8 0C389 0 311 0 233.2 0C155.3 0 77.7 0 38.8 0L0 0Z" fill="#0a076d"></path><path d="M0 100L38.8 94.5C77.7 89 155.3 78 233.2 75C311 72 389 77 466.8 76.7C544.7 76.3 622.3 70.7 700 71.3C777.7 72 855.3 79 933.2 92.2C1011 105.3 1089 124.7 1166.8 127C1244.7 129.3 1322.3 114.7 1361.2 107.3L1400 100L1400 0L1361.2 0C1322.3 0 1244.7 0 1166.8 0C1089 0 1011 0 933.2 0C855.3 0 777.7 0 700 0C622.3 0 544.7 0 466.8 0C389 0 311 0 233.2 0C155.3 0 77.7 0 38.8 0L0 0Z" fill="#020c60"></path><path d="M0 102L38.8 102.2C77.7 102.3 155.3 102.7 233.2 102.7C311 102.7 389 102.3 466.8 90.2C544.7 78 622.3 54 700 49.2C777.7 44.3 855.3 58.7 933.2 62.5C1011 66.3 1089 59.7 1166.8 58.7C1244.7 57.7 1322.3 62.3 1361.2 64.7L1400 67L1400 0L1361.2 0C1322.3 0 1244.7 0 1166.8 0C1089 0 1011 0 933.2 0C855.3 0 777.7 0 700 0C622.3 0 544.7 0 466.8 0C389 0 311 0 233.2 0C155.3 0 77.7 0 38.8 0L0 0Z" fill="#000e52"></path></svg>